<svg id="Layer_1" data-name="Layer 1" xmlns="http://www.w3.org/2000/svg" viewBox="0 0 1440 1080"><title>logo black and white with artboard</title><path d="M210.69,587.45c5.61,8.46,12.83,9.68,20.31,7.25a62.44,62.44,0,0,0,16.79-8.77,404.07,404.07,0,0,0,86.06-83.67,117.49,117.49,0,0,0,14.21-24.12c5.64-13,3.88-25.94-5.46-36.92-12.31-14.49-26.25-26.66-45.81-30.68-21.63-4.45-43.18-9.32-64.68-14.34a168.23,168.23,0,0,1-24.71-7.42c-8.83-3.56-10.54-8.94-5.32-16.92,3.41-5.21,7.8-10.59,13.06-13.63,23.72-13.68,42.22-33.41,62.41-51.34,60.14-53.42,130.81-81.25,211.33-81.49,45.6-.13,86.41,14.74,118.51,48.45,8.4,8.82,15.42,19.43,21.13,30.24,7.9,15,.87,27.66-15.79,30.79-4.37.83-9,.42-13.46.66-9.73.51-15.45-3.2-19.51-12.93-11.63-27.94-34.45-43.64-62.48-52.41-28.82-9-58.47-9.5-88.08-6.3-53.42,5.76-101.91,24.6-143.62,58.86-13,10.65-24.18,23.47-35.7,35.77-4.23,4.51-8.88,10.27-4.49,17.05,4.18,6.44,11,5.12,17.42,4.21,20.78-3,41.5-6.3,62.34-8.63a67.83,67.83,0,0,1,22.29,1.58c28.51,6.53,44.29,33.44,39,65.28-4.71,28.18-18,52.39-35.48,74.33-26.84,33.72-58.95,62-94.4,86.26-17,11.64-35.93,18.82-57,18.14a68.67,68.67,0,0,1-18.7-3.26c-11.11-3.61-14.43-10.78-11-22a40.89,40.89,0,0,1,3.52-8.25c16.53-29.12,35-56.91,57.61-81.71,17-18.71,36.87-33.46,62.93-36.27a68.26,68.26,0,0,1,26.5,2.28c14.73,4.49,18,17.52,7.53,28.95-8.33,9.09-17.84,17.15-27.2,25.22a682.25,682.25,0,0,1-82.38,60.75C216.14,583.85,214,585.31,210.69,587.45ZM197.14,574a32.93,32.93,0,0,0,5-2.41c14.3-10.26,28.63-20.47,42.75-31,6.9-5.13,13.4-10.81,20-16.34,3.95-3.31,5-7.12,1.94-11.82-3.42-5.32-6.75-6.53-13.22-2.93C231.92,521.57,215.25,539.2,201,559.1,198.24,562.88,194.19,567.47,197.14,574Z"/><path d="M442,552.39a1.08,1.08,0,0,0,.08-.19q-16.86,2.06-33.8,3.46c-3.5.3-7.73.22-9.59-2.77-2.9-4.68,3.22-9.92,4-15.38.66-4.75-2.83-10-.27-14.08,2-3.11,6.29-3.45,10-3.43q56.42.16,112.81,2.18c-2.17,8.77-12.75,12.33-21.77,12.71s-18.84-.73-26.37,4.25-10.5,15.72-7.13,24.16,12.34,14.09,21.43,14.23c20.93.32,39.67-28.39,48-44.71a57.89,57.89,0,0,0,5.53-14.65c4.87-24.16-8.63-42.5-33.36-42.72-74.78-.67-155,47.94-167.59,126-7.56,46.76,7.68,109.1,60,122,34.84,8.58,72.73-1.18,103.75-17.46a323.08,323.08,0,0,0,81.74-61c7.13-7.32,16.35-17.51,25.72-21.94,5.89-2.79,10.68-1,15.36,2.79,7.91,6.45,15.41,13.61,22.64,20.79-3.75,7.85-14.24,14.85-20.89,20.42-44.71,37.46-98.92,65-155.18,80-23.75,6.36-48.12,8.76-72.24,1.24-25.68-8-48.82-23.71-62.94-47-16.56-27.28-18.29-63.49-15.62-94.58,7.36-85.41,97.2-143.52,173.72-161.17a114.94,114.94,0,0,1,15.09-2.48c20.56-1.88,43,3.54,56.5,20,14.91,18.22,18.41,43.38,6.67,64.24-12.19,21.66-30.34,40.52-52,52.82-19.39,11-51.77,21.74-72.29,8C442.47,580.47,436.5,565.49,442,552.39Z"/><path d="M870.57,471.4c-9.25,8.16-16.79,14.16-23.39,21.06-2.09,2.18-2.92,7.08-2.17,10.22,5.54,23.07-5.55,39.49-21.86,52.89-20.48,16.82-45.21,21-71,19.78a113.29,113.29,0,0,1-23.29-3.63c-19.24-5.06-30.7-18-35-37.21-2.5-11.09,1.13-15.39,12.31-16,8.9-.53,16.11,3.13,22.37,8.91,17.26,15.93,17.23,12.18,32.62.26,11-8.51,21.93-17.05,32.72-25.79,2.67-2.16,4.68-5.13,8.23-9.12-8.85-4-15.83-7.31-23-10.25-4.38-1.81-7,1.11-9.17,4.43q-8.1,12.19-16.27,24.33c-1,1.56-2.14,3.09-3.28,4.58-9.58,12.53-15.3,12-22.4-2a36.72,36.72,0,0,0-2.14-3.22c-.21-.31-4.07.35-4.59.39l-4.47.39a.82.82,0,0,1-.27,0,.62.62,0,0,1-.26-.25l-.84-1.23a3.76,3.76,0,0,1-.62-1.17c-.3-1.11.26-2.49.38-3.62q.21-2,.54-4c.36-2.25.89-4.79,2.58-6.45,16.41-16.28,33.58-31.8,51.57-48.57,3.7,4.38,6.26,7.34,8.74,10.37,2.12,2.58,3.61,6.3,6.31,7.68,15,7.66,31.13,12.92,47.43,6.24,10.54-4.32,19.73-12.08,29.13-18.84,1.88-1.35,3.16-5.38,2.72-7.81-3.31-18.16-.46-35.88,3.15-53.57q10-49,20.21-98a35.16,35.16,0,0,1,3.67-10.55c1.33-2.26,4-3.91,6.43-5.3,4.74-2.73,10-4.66,14.5-7.72,7.11-4.85,13.72-10.43,20.66-15.55,4.71-3.47,9.6-3.93,14.67.2,1.16,5.79-.79,10.21-5,14.83a60.34,60.34,0,0,0-10.8,16.95q-15.33,36.84-29.54,74.13a91.27,91.27,0,0,0-5,21.88,123.9,123.9,0,0,1-11.13,39.86c-3.35,7-9,14.91.14,22.24a2.67,2.67,0,0,1,.69,2.07c-2,17.52,5.14,34.38,3,52.11-2.1,17.46-2,35.19-2.67,52.81-.69,18-1.17,36-1.75,54-.13,4.12.08,8.3-.49,12.36-1.63,11.72-6.73,15.33-18.5,13.56-9.11-1.38-11.67-3.24-12.1-14.26-.59-15.33-1.13-30.92,1-46,4.08-29.31,10.06-58.35,15.14-87.51C871,479.67,870.57,476.91,870.57,471.4ZM766.84,552.25l.27,2.47c10-.75,20.18-.36,29.84-2.5,17.8-4,28.92-16.24,35.4-32.88,1.67-4.29,2.28-8.73-3.25-13.39Z"/><path d="M971.4,534.6c13.18,4.54,21.47-.26,29-6.84,5.38-4.68,10.06-10.16,15.5-14.74,10.57-8.9,16.56-7.84,23,4.2,4.17,7.76,10,12.89,21,15.42-2.21-5.26-3.48-9.28-5.5-12.88a46.92,46.92,0,0,1-5.5-32.58c.35-1.84.94-3.83.57-5.58-3.18-15,3.23-27.81,8.85-40.9,14-32.69,27.37-65.7,42.14-98.05,6.83-14.94,16.42-28.6,24.63-42.91a38.13,38.13,0,0,1,21.17-17.59,87.86,87.86,0,0,0,28.25-15.84c7.08-5.93,9.82-6.17,18.59-4.7.17,1,.88,2.43.44,3.13-7.21,11.62-14.11,23.39-26.32,31a36.48,36.48,0,0,0-11.65,11.67c-25.14,41.77-49.93,83.75-74.77,125.7-1.66,2.81-2.9,5.87-5.25,10.67,6.09.89,10.64,1.87,15.24,2.16,6,.38,10.23,2.57,10.91,9,.66,6.22-2.26,10.18-8.46,11.18-11.79,1.92-17,10.12-16.85,20.63.15,11,2.89,22.05,4.43,33.08.71,5.1,1.31,10.21,1.88,15.33.38,3.3.32,6.69,1,9.92.62,2.9,2,5.62,3,8.44,2.21,6.23,6.44,12.69,0,18.65-3.32,3.06-18,1.51-22.42-2.58-10.12-9.46-20.13-19.08-29.52-29.25-7.67-8.31-10.54-9-17,.19-3.64,5.12-6.07,11.15-8.71,16.92-3.44,7.48-6.22,15.29-9.94,22.62-1.72,3.37-5,5.94-8.67,10.1-3.36-4.54-5.49-7.89-8.1-10.82-7.18-8.07-14-16.65-22-23.72-8.55-7.48-9.44-6.79-18.49-.44q-18.42,12.93-36.92,25.77a53.91,53.91,0,0,1-4.81,2.55c-.23-3.2-1.08-5.78-.47-8,4.07-14.39,8.51-28.67,12.72-43,1.94-6.61,5.55-11.37,12.66-12.87,1.44-.3,3.22-.7,4.11-1.71,6.53-7.43,13-6.86,20.56-1.22,2.12,1.59,7.1,1.75,9.38.34,14.26-8.86,29.32-16.65,42.7-29.89l-17-20.34c-12,11.14-27.42,16.18-33.29,32.13-2.07,5.63-12.15,7.28-18.91,3.74-6-3.15-4.61-8.59-2.12-12.64,4.85-7.88,10.09-15.72,16.34-22.49,5.79-6.26,13.17-11,19.74-16.59,8.23-7,15.07-7.29,23-.15a80.74,80.74,0,0,1,11.23,12.56c4.41,6.08,9.59,9,17.28,7.48,3.52-.69,7.3-.12,10.47-.12,3.83,5.67,1.23,9.86-1.67,13a259.83,259.83,0,0,1-21.4,21.36c-7.63,6.63-16.21,12.15-24.07,18.53C978.06,526.37,975.52,530,971.4,534.6Z"/><path d="M667.79,476.37l-.12,0a1.43,1.43,0,0,0-.84.33c-16.39,11.05-28,25.05-39.75,40.71-1.85,2.48-4.09,5.17-7.18,5.38-4.19.28-7.49-3.69-10.21-6.3-8.49-8.14-16.15-15.33-8.33-27.14,10.79-16.32,29-26.76,47.2-32.78,13.93-4.6,25.92.1,34.21,12.29,6.38,9.38,9.38,20.93,7.24,32.18-2.24,11.72-10.28,20-17.8,28.87a451,451,0,0,1-62.85,60.88c-4.9,3.91-26.16,17.7-29.76,5.92-1.06-3.47,2.4-7.73,4.95-9.56,5.41-3.89,11.58-6.54,17-10.37a153.16,153.16,0,0,0,19.6-16.91c11.45-11.32,23.4-22.55,34.32-34.42C667,513,679.79,493.54,668.57,477.07A1.55,1.55,0,0,0,667.79,476.37Z"/><path d="M442.3,552.51l-.61-.58.3.39Z"/><path d="M701.3,671.76v-3.44h12v4.73h-.86Zm12,49.45v4.73h-12V722.5l11.18-1.29ZM709.47,695c0-8.86,0-17.8-.26-26.66h8.26c-.26,8.68-.26,17.63-.26,26.66v3.27c0,9.88,0,18.83.26,27.69h-8.26c.26-8.69.26-17.63.26-27.69Zm3.87,27h11.09c13.5,0,20.9-9.12,20.9-24.77,0-16.25-7.4-24.94-20.12-24.94H713.34v-3.95h13.33c16.34,0,27.69,10.15,27.69,28.89,0,18.58-12.73,28.73-29.41,28.73H713.34Z"/><path d="M802.78,671.76v-3.44h24.08v3.44l-11.18,1.29H814Zm12.9,49.45,11.18,1.29v3.44H802.78V722.5L814,721.21ZM811,695c0-8.86,0-17.8-.26-26.66H819c-.26,8.68-.26,17.63-.26,26.66v4.3c0,8.85,0,17.8.26,26.66h-8.26c.26-8.69.26-17.63.26-26.66Z"/><path d="M923.52,722.15c-5.93,3.1-11.78,5.08-18.92,5.08-17.2,0-28.89-12.82-28.89-30.1S887.49,667,905,667c7.13,0,12.47,1.29,17.28,4.13l.35,12.47h-5.25l-2.15-12.73,5.33,1.72v4.9c-4.64-4.3-9.37-6.19-14.88-6.19-12,0-20.89,9.37-20.89,25.8s8.08,25.71,21.5,25.71c4.9,0,8.51-1.12,13.41-3.53l-3.87,4.05v-5c0-6.54-.08-13.24-.26-19.78h8.26c-.17,6.45-.26,13.07-.26,19.78ZM906.58,702v-3.44h22.36V702l-9.46.86h-1.72Z"/><path d="M976.24,671.76v-3.44h24.08v3.44l-11.18,1.29h-1.72Zm12.9,49.45,11.18,1.29v3.44H976.24V722.5l11.18-1.29ZM984.41,695c0-8.86,0-17.8-.26-26.66h8.26c-.26,8.68-.26,17.63-.26,26.66v4.3c0,8.85,0,17.8.26,26.66h-8.26c.26-8.69.26-17.63.26-26.66Z"/><path d="M1052.61,672.62l3.87-4.3-2.75,15.31h-4.82l.69-15.31h47l.69,15.31h-4.82l-2.75-15.31,3.87,4.3Zm21.32,48.59,12,1.29v3.44h-25.8V722.5l12-1.29ZM1069.21,695c0-8.86,0-17.8-.26-26.66h8.25C1077,677,1077,686,1077,695v4.3c0,8.85,0,17.8.25,26.66H1069c.26-8.69.26-17.63.26-26.66Z"/><path d="M1136.37,722.5l8.6-1.29h1.72l9.46,1.29v3.44h-19.78ZM1162,667.89h5.16l19.78,58.05h-8l-17.28-51.52h2l-17.54,51.52h-4Zm-10.06,35.26h23.22l1.37,4h-26Zm16.94,19.35,10.83-1.29h1.72l10.67,1.29v3.44h-23.22Z"/><path d="M1239,671.76v-3.44h24.08v3.44l-11.18,1.29h-1.72Zm12,49.45v4.73h-12V722.5l11.18-1.29Zm-4.13-52.89h8.26c-.26,8.86-.26,17.8-.26,26.66v6c0,7.31,0,16.25.26,24.94h-8.26c.26-8.86.26-17.81.26-26.66V695C1247.14,686,1247.14,677,1246.88,668.32Zm35.69,41.45-.86,16.17H1251v-4.3h27.69l-4.73,4.3,3.44-16.17Z"/></svg>